<svg width="720" height="180" viewBox="0 0 720 180" fill="none" xmlns="http://www.w3.org/2000/svg">
  <rect width="720" height="180" fill="white"/>
  <g>
    <path d="M90 18L132 34C145 39 154 52 154 66V93C154 129 128 160 93 166L90 166L87 166C52 160 26 129 26 93V66C26 52 35 39 48 34L90 18Z" fill="#0F172A"/>
    <path d="M90 34L123 46C131 49 136 56 136 65V92C136 119 117 141 90 147C63 141 44 119 44 92V65C44 56 49 49 57 46L90 34Z" fill="url(#paint0_linear_1_2)"/>
    <path d="M90 50C95.5228 50 100 54.4772 100 60V120C100 125.523 95.5228 130 90 130C84.4772 130 80 125.523 80 120V60C80 54.4772 84.4772 50 90 50Z" fill="#F8FAFC"/>
    <path d="M90 50C95.5228 50 100 54.4772 100 60V85L116 100L90 121L64 100L80 85V60C80 54.4772 84.4772 50 90 50Z" fill="#0EA5E9" fill-opacity="0.18"/>
    <rect x="86" y="58" width="8" height="18" rx="4" fill="#FBBF24"/>
    <rect x="86" y="82" width="8" height="18" rx="4" fill="#FBBF24"/>
    <rect x="86" y="106" width="8" height="14" rx="4" fill="#FBBF24"/>
    <path d="M90 134L73 117H84V99H96V117H107L90 134Z" fill="#FBBF24"/>
  </g>
  <g>
    <text x="188" y="78" fill="#0F172A" font-family="Trebuchet MS, Arial Narrow, sans-serif" font-size="42" font-weight="700" letter-spacing="0.02em">
      iDispatchLoads
    </text>
    <text x="188" y="112" fill="#0F766E" font-family="Avenir Next, Segoe UI, sans-serif" font-size="22" font-weight="600" letter-spacing="0.22em">
      NORTHEAST DISPATCH
    </text>
    <text x="188" y="141" fill="#475569" font-family="Avenir Next, Segoe UI, sans-serif" font-size="18" font-weight="500">
      NY • NJ • CT • PA
    </text>
  </g>
  <defs>
    <linearGradient id="paint0_linear_1_2" x1="90" y1="34" x2="90" y2="147" gradientUnits="userSpaceOnUse">
      <stop stop-color="#113454"/>
      <stop offset="1" stop-color="#0F766E"/>
    </linearGradient>
  </defs>
</svg>
